<?xml version="1.0" encoding="iso-8859-1"?>
<!-- Uploaded to: SVG Repo, www.svgrepo.com, Generator: SVG Repo Mixer Tools -->
<!DOCTYPE svg PUBLIC "-//W3C//DTD SVG 1.1//EN" "http://www.w3.org/Graphics/SVG/1.1/DTD/svg11.dtd">
<svg fill="#000000" height="800px" width="800px" version="1.1" id="Capa_1" xmlns="http://www.w3.org/2000/svg" xmlns:xlink="http://www.w3.org/1999/xlink" 
	 viewBox="0 0 268.67 268.67" xml:space="preserve">
<path d="M261.17,109.592h-48.737l-32.512-32.512c-1.407-1.407-3.314-2.197-5.304-2.197H87.844c-4.142,0-7.5,3.358-7.5,7.5
	s3.358,7.5,7.5,7.5h14.248l19.709,19.708H7.5c-2.427,0-4.704,1.174-6.111,3.152c-1.407,1.977-1.77,4.513-0.975,6.806l24.003,69.194
	c1.047,3.018,3.891,5.042,7.086,5.042h160.469c42.292,0,76.698-34.405,76.698-76.694C268.67,112.95,265.313,109.592,261.17,109.592z
	 M123.305,89.884h48.206l19.708,19.708h-48.205L123.305,89.884z M191.972,178.786H36.84l-18.8-54.194h121.848
	c0.007,0,0.014,0.001,0.02,0.001c0.007,0,0.014-0.001,0.021-0.001h69.377c0.007,0,0.014,0.001,0.02,0.001s0.014-0.001,0.021-0.001
	h43.852C249.484,155.084,223.452,178.786,191.972,178.786z"/>
</svg>